HIERARCHY
ROOT Hips
{
	OFFSET 0.000000 0.000000 0.000000
	CHANNELS 6 Xposition Yposition Zposition Xrotation Yrotation Zrotation
	JOINT Chest
	{
		OFFSET 0.000000 0.009282 11.569106
		CHANNELS 3 Xrotation Yrotation Zrotation
		JOINT Chest2
		{
			OFFSET 0.000000 -0.016863 9.269641
			CHANNELS 3 Xrotation Yrotation Zrotation
			JOINT Chest3
			{
				OFFSET 0.000000 0.000000 8.374491
				CHANNELS 3 Xrotation Yrotation Zrotation
				JOINT Chest4
				{
					OFFSET 0.000000 0.000000 8.374493
					CHANNELS 3 Xrotation Yrotation Zrotation
					JOINT Neck
					{
						OFFSET 0.000000 -0.000001 12.152554
						CHANNELS 3 Xrotation Yrotation Zrotation
						JOINT Head
						{
							OFFSET 0.000000 -0.040100 7.802319
							CHANNELS 3 Xrotation Yrotation Zrotation
							End Site
							{
								OFFSET 0.000000 -0.020946 14.853096
							}
						}
					}
					JOINT RightCollar
					{
						OFFSET -2.894404 0.000000 6.791374
						CHANNELS 3 Xrotation Yrotation Zrotation
						JOINT RightShoulder
						{
							OFFSET -13.574684 0.000000 0.000000
							CHANNELS 3 Xrotation Yrotation Zrotation
							JOINT RightElbow
							{
								OFFSET -23.923903 0.000000 0.000000
								CHANNELS 3 Xrotation Yrotation Zrotation
								JOINT RightWrist
								{
									OFFSET -19.846718 -0.012765 0.000000
									CHANNELS 3 Xrotation Yrotation Zrotation
									End Site
									{
										OFFSET -14.973145 0.000000 0.000000
									}
								}
							}
						}
					}
					JOINT LeftCollar
					{
						OFFSET 2.894404 0.000000 6.791374
						CHANNELS 3 Xrotation Yrotation Zrotation
						JOINT LeftShoulder
						{
							OFFSET 13.574684 0.000000 0.000000
							CHANNELS 3 Xrotation Yrotation Zrotation
							JOINT LeftElbow
							{
								OFFSET 23.923903 0.000000 0.000000
								CHANNELS 3 Xrotation Yrotation Zrotation
								JOINT LeftWrist
								{
									OFFSET 19.846718 -0.012765 0.000000
									CHANNELS 3 Xrotation Yrotation Zrotation
									End Site
									{
										OFFSET 14.973145 0.000000 0.000000
									}
								}
							}
						}
					}
				}
			}
		}
	}
	JOINT RightHip
	{
		OFFSET -9.469263 -0.004642 0.045487
		CHANNELS 3 Xrotation Yrotation Zrotation
		JOINT RightKnee
		{
			OFFSET 0.000000 -0.002666 -40.478676
			CHANNELS 3 Xrotation Yrotation Zrotation
			JOINT RightAnkle
			{
				OFFSET 0.000000 -0.049110 -35.224068
				CHANNELS 3 Xrotation Yrotation Zrotation
				JOINT RightToe
				{
					OFFSET 0.000000 -12.539530 -6.151390
					CHANNELS 3 Xrotation Yrotation Zrotation
					End Site
					{
						OFFSET 0.000000 -5.044995 -1.291870
					}
				}
			}
		}
	}
	JOINT LeftHip
	{
		OFFSET 9.469263 -0.004642 0.045487
		CHANNELS 3 Xrotation Yrotation Zrotation
		JOINT LeftKnee
		{
			OFFSET 0.000000 -0.002666 -40.478676
			CHANNELS 3 Xrotation Yrotation Zrotation
			JOINT LeftAnkle
			{
				OFFSET 0.000000 -0.049110 -35.224068
				CHANNELS 3 Xrotation Yrotation Zrotation
				JOINT LeftToe
				{
					OFFSET 0.000000 -12.539530 -6.151390
					CHANNELS 3 Xrotation Yrotation Zrotation
					End Site
					{
						OFFSET 0.000000 -5.044995 -1.291870
					}
				}
			}
		}
	}
}
MOTION
Frames: 5
Frame Time: 0.016667
-6.144478 -2.655246 83.207962 0.031019 3.203600 -108.554471 2.007492 -0.510816 0.287161 0.893196 -0.209998 0.135721 0.893196 -0.209998 0.135722 0.669849 -0.157697 0.101486 15.608997 0.053754 -2.096340 -7.169382 0.866738 -3.795896 -2.920030 -10.480392 1.108082 -10.727946 -72.858659 -11.970740 26.362693 -1.748825 4.413517 -7.319839 12.755291 10.970074 -0.327321 11.082720 -2.497710 14.540296 75.430669 -15.487589 17.395718 1.229585 -2.864050 18.704126 -13.909257 -7.709133 5.210984 -0.258827 3.247023 -0.560444 0.319566 0.486778 -3.087108 -0.608161 -2.660567 0.041012 -0.007230 0.029060 4.299036 1.404321 -3.238135 0.680901 -0.606082 2.564711 -1.333189 -0.304239 0.496920 0.260379 -0.518989 -0.031196 
-6.164031 -2.661618 83.200401 0.054648 3.236451 -108.533844 2.062056 -0.525960 0.299219 0.917426 -0.218923 0.144766 0.917426 -0.218923 0.144764 0.688017 -0.164410 0.108245 15.552716 0.057791 -2.124878 -7.273023 0.886160 -3.846023 -2.945882 -10.498812 1.119307 -10.572084 -72.883958 -11.811075 26.136986 -1.825354 4.465601 -7.140475 11.924530 10.344458 -0.358493 11.067342 -2.505192 14.839803 75.292153 -15.924468 17.509390 1.356781 -3.022745 18.860143 -12.834010 -7.229019 5.308011 -0.286528 3.155893 -0.650497 0.371210 0.523067 -3.045118 -0.639853 -2.618584 0.037799 -0.013445 0.027394 4.408135 1.408341 -3.180748 0.560459 -0.641946 2.491069 -1.333338 -0.211580 0.501187 0.246357 -0.477279 -0.030171 
-6.184455 -2.667392 83.195229 0.085530 3.275929 -108.507220 2.117584 -0.544475 0.310485 0.941871 -0.230239 0.153072 0.941871 -0.230239 0.153080 0.706344 -0.172916 0.114456 15.516889 0.049133 -2.157616 -7.338877 0.883469 -3.908569 -2.954065 -10.509442 1.130342 -10.496622 -72.905917 -11.740344 26.085288 -1.832346 4.547721 -7.069175 11.352581 9.885902 -0.382967 11.061812 -2.499588 14.988353 75.156629 -16.194196 17.636327 1.509430 -3.249780 18.981354 -12.003158 -6.816335 5.412097 -0.318149 3.071876 -0.734873 0.421778 0.536620 -3.004342 -0.676518 -2.569388 0.032709 -0.014937 0.023961 4.502371 1.400798 -3.106528 0.488939 -0.657886 2.397948 -1.356172 -0.155147 0.499928 0.233004 -0.424162 -0.026809 
-6.207943 -2.671522 83.191437 0.121663 3.317755 -108.472440 2.162236 -0.566673 0.320079 0.961234 -0.243974 0.160182 0.961234 -0.243974 0.160181 0.720861 -0.183233 0.119752 15.502783 0.030418 -2.199580 -7.364377 0.865263 -3.991741 -2.942829 -10.513800 1.131362 -10.483875 -72.929721 -11.741613 26.044114 -1.805344 4.631331 -7.029317 10.853978 9.496015 -0.366123 11.068327 -2.509444 15.044564 75.050009 -16.337992 17.793536 1.598488 -3.544981 19.106720 -11.313375 -6.462890 5.517442 -0.353616 2.990188 -0.805391 0.467356 0.521577 -2.974578 -0.712630 -2.493536 0.027999 -0.014130 0.020819 4.595995 1.387166 -3.030779 0.429242 -0.668329 2.293384 -1.380009 -0.116644 0.503615 0.217953 -0.370582 -0.023813 
-6.235913 -2.675248 83.187645 0.161137 3.361853 -108.432853 2.205413 -0.589101 0.327258 0.979547 -0.257694 0.165527 0.979548 -0.257694 0.165528 0.734590 -0.193536 0.123731 15.487611 0.000342 -2.244861 -7.392042 0.827648 -4.085133 -2.927637 -10.510270 1.128964 -10.566802 -72.965763 -11.825265 25.898894 -1.793893 4.698297 -6.900139 10.365121 9.135639 -0.340086 11.074036 -2.536243 14.916744 74.988886 -16.269444 18.007386 1.617659 -3.869194 19.230987 -10.690076 -6.158942 5.621045 -0.386858 2.897101 -0.856891 0.505007 0.507827 -2.963433 -0.749413 -2.450005 0.026557 -0.010515 0.018586 4.691328 1.367263 -2.971329 0.378694 -0.669241 2.214630 -1.408679 -0.088458 0.490374 0.204483 -0.323866 -0.021569 
